<svg xmlns="http://www.w3.org/2000/svg" xmlns:svg="http://www.w3.org/2000/svg" id="svg32934" width="2" height="24" version="1.1"><metadata id="metadata32939"/><g id="layer1" transform="translate(0,8)"><path style="fill:#babdb6;fill-opacity:1;stroke:none;display:inline;enable-background:new" id="path5824" d="m 870.53682,617.14966 a 1.9003495,1.9003495 0 1 1 -3.80069,0 1.9003495,1.9003495 0 1 1 3.80069,0 z" transform="matrix(0.52621899,0,0,0.52621789,-456.09301,-320.75518)"/><path id="path5828" d="m 870.53682,617.14966 a 1.9003495,1.9003495 0 1 1 -3.80069,0 1.9003495,1.9003495 0 1 1 3.80069,0 z" transform="matrix(0.52621899,0,0,0.52621789,-456.09301,-326.25519)" style="fill:#babdb6;fill-opacity:1;stroke:none;display:inline;enable-background:new"/><path style="fill:#babdb6;fill-opacity:1;stroke:none;display:inline;enable-background:new" id="path5830" d="m 870.53682,617.14966 a 1.9003495,1.9003495 0 1 1 -3.80069,0 1.9003495,1.9003495 0 1 1 3.80069,0 z" transform="matrix(0.52621899,0,0,0.52621789,-456.09301,-331.75519)"/><path style="fill:#babdb6;fill-opacity:1;stroke:none;display:inline;enable-background:new" id="path5824-3" d="m 870.53682,617.14966 c 0,1.04953 -0.85081,1.90035 -1.90035,1.90035 -1.04953,0 -1.90034,-0.85082 -1.90034,-1.90035 0,-1.04954 0.85081,-1.90035 1.90034,-1.90035 1.04954,0 1.90035,0.85081 1.90035,1.90035 z" transform="matrix(0.52621899,0,0,0.52621789,-456.09301,-309.75517)"/><path id="path5828-7" d="m 870.53682,617.14966 a 1.9003495,1.9003495 0 1 1 -3.80069,0 1.9003495,1.9003495 0 1 1 3.80069,0 z" transform="matrix(0.52621899,0,0,0.52621789,-456.09301,-315.25518)" style="fill:#babdb6;fill-opacity:1;stroke:none;display:inline;enable-background:new"/></g></svg>