<svg xmlns="http://www.w3.org/2000/svg" xmlns:svg="http://www.w3.org/2000/svg" id="svg32934" width="24" height="2" version="1.1"><metadata id="metadata32939"/><g id="layer1" transform="translate(0,-14)"><path style="fill:#babdb6;fill-opacity:1;stroke:none;display:inline;enable-background:new" id="path5824" d="m 870.53682,617.14966 a 1.9003495,1.9003495 0 1 1 -3.80069,0 1.9003495,1.9003495 0 1 1 3.80069,0 z" transform="matrix(-0.52621972,0,0,-0.52621861,469.09367,339.75564)"/><path id="path5828" d="m 870.53682,617.14966 a 1.9003495,1.9003495 0 1 1 -3.80069,0 1.9003495,1.9003495 0 1 1 3.80069,0 z" transform="matrix(-0.52621972,0,0,-0.52621861,474.59365,339.75564)" style="fill:#babdb6;fill-opacity:1;stroke:none;display:inline;enable-background:new"/><path style="fill:#babdb6;fill-opacity:1;stroke:none;display:inline;enable-background:new" id="path5830" d="m 870.53682,617.14966 a 1.9003495,1.9003495 0 1 1 -3.80069,0 1.9003495,1.9003495 0 1 1 3.80069,0 z" transform="matrix(-0.52621972,0,0,-0.52621861,480.09364,339.75564)"/><path style="fill:#babdb6;fill-opacity:1;stroke:none;display:inline;enable-background:new" id="path5824-3" d="m 870.53682,617.14966 a 1.9003495,1.9003495 0 1 1 -3.80069,0 1.9003495,1.9003495 0 1 1 3.80069,0 z" transform="matrix(-0.52621972,0,0,-0.52621861,458.09369,339.75564)"/><path id="path5828-7" d="m 870.53682,617.14966 a 1.9003495,1.9003495 0 1 1 -3.80069,0 1.9003495,1.9003495 0 1 1 3.80069,0 z" transform="matrix(-0.52621972,0,0,-0.52621861,463.59368,339.75564)" style="fill:#babdb6;fill-opacity:1;stroke:none;display:inline;enable-background:new"/></g></svg>