<svg xmlns="http://www.w3.org/2000/svg" xmlns:svg="http://www.w3.org/2000/svg" xmlns:xlink="http://www.w3.org/1999/xlink" id="svg2" width="19" height="19" version="1.1"><defs id="defs4"><linearGradient id="linearGradient3777"><stop id="stop3779" offset="0" style="stop-color:#000;stop-opacity:.22745098"/><stop id="stop3781" offset="1" style="stop-color:#000;stop-opacity:0"/></linearGradient><linearGradient id="linearGradient3767"><stop style="stop-color:#c8c8c8;stop-opacity:1" id="stop3769" offset="0"/><stop style="stop-color:#e8e8e8;stop-opacity:1" id="stop3771" offset="1"/></linearGradient><linearGradient id="linearGradient3757"><stop style="stop-color:#bebebe;stop-opacity:1" id="stop3759" offset="0"/><stop style="stop-color:#e6e6e6;stop-opacity:1" id="stop3761" offset="1"/></linearGradient><linearGradient id="linearGradient3763" x1="13" x2="13" y1="4" y2="19" gradientUnits="userSpaceOnUse" xlink:href="#linearGradient3757"/><linearGradient id="linearGradient3797" x1="13.333" x2="13.333" y1="6" y2="17" gradientUnits="userSpaceOnUse" xlink:href="#linearGradient3767"/><linearGradient id="linearGradient3801" x1="14.471" x2="14.471" y1="17" y2="6" gradientUnits="userSpaceOnUse" xlink:href="#linearGradient3777"/></defs><metadata id="metadata7"/><g id="layer1" transform="translate(-1.9999997,-1031.3622)"><g id="g4399"><path id="path2987" d="M 20,11.5 C 20,15.642136 16.642136,19 12.5,19 8.3578644,19 5,15.642136 5,11.5 5,7.3578644 8.3578644,4 12.5,4 16.642136,4 20,7.3578644 20,11.5 z" transform="matrix(1.2666667,0,0,1.2666667,-4.3333338,1026.2955)" style="fill:url(#linearGradient3763);fill-opacity:1;stroke:none"/><path style="fill:url(#linearGradient3801);fill-opacity:1;stroke:none" id="path3775" d="M 18,11.5 C 18,14.537566 15.761424,17 13,17 10.238576,17 8,14.537566 8,11.5 8,8.4624339 10.238576,6 13,6 c 2.761424,0 5,2.4624339 5,5.5 z" transform="matrix(1.7,0,0,-1.5454545,-10.6,1058.635)"/><path id="path3765" d="M 18,11.5 C 18,14.537566 15.761424,17 13,17 10.238576,17 8,14.537566 8,11.5 8,8.4624339 10.238576,6 13,6 c 2.761424,0 5,2.4624339 5,5.5 z" transform="matrix(1.5,0,0,1.3636364,-8,1025.1804)" style="fill:url(#linearGradient3797);fill-opacity:1;stroke:none"/><g id="g4087"><g style="fill:#fff" id="g4081" transform="matrix(1.2374369,0,0,1.2374369,-3.3492588,-245.52035)"><rect style="fill:#fff;fill-opacity:1;stroke:none" id="rect4083" width="7" height="1" x="-730.662" y="743.632" transform="matrix(0.70710678,-0.70710678,0.70710678,0.70710678,0,0)"/><rect id="rect4085" width="7" height="1" x="-747.632" y="726.662" transform="matrix(-0.70710678,-0.70710678,-0.70710678,0.70710678,0,0)" style="fill:#fff;fill-opacity:1;stroke:none"/></g><g id="g3960" transform="matrix(1.2374369,0,0,1.2374369,-3.3492588,-246.52035)" style="fill:#4d4d4d"><rect id="rect3956" width="7" height="1" x="-730.662" y="743.632" transform="matrix(0.70710678,-0.70710678,0.70710678,0.70710678,0,0)" style="fill:#4d4d4d;fill-opacity:1;stroke:none"/><rect style="fill:#4d4d4d;fill-opacity:1;stroke:none" id="rect3958" width="7" height="1" x="-747.632" y="726.662" transform="matrix(-0.70710678,-0.70710678,-0.70710678,0.70710678,0,0)"/></g></g></g></g></svg>