<svg xmlns="http://www.w3.org/2000/svg" xmlns:svg="http://www.w3.org/2000/svg" xmlns:xlink="http://www.w3.org/1999/xlink" id="svg2" width="19" height="19" version="1.1"><defs id="defs4"><linearGradient id="linearGradient3777"><stop id="stop3779" offset="0" style="stop-color:#000;stop-opacity:.22745098"/><stop id="stop3781" offset="1" style="stop-color:#000;stop-opacity:0"/></linearGradient><linearGradient id="linearGradient3767"><stop style="stop-color:#fafafa;stop-opacity:1" id="stop3769" offset="0"/><stop style="stop-color:#d4d4d4;stop-opacity:1" id="stop3771" offset="1"/></linearGradient><linearGradient id="linearGradient3757"><stop style="stop-color:#bebebe;stop-opacity:1" id="stop3759" offset="0"/><stop style="stop-color:#e6e6e6;stop-opacity:1" id="stop3761" offset="1"/></linearGradient><linearGradient id="linearGradient3763" x1="13" x2="13" y1="4" y2="19" gradientUnits="userSpaceOnUse" xlink:href="#linearGradient3757"/><linearGradient id="linearGradient3797" x1="13.333" x2="13.333" y1="6" y2="17" gradientUnits="userSpaceOnUse" xlink:href="#linearGradient3767"/><linearGradient id="linearGradient3801" x1="14.471" x2="14.471" y1="17" y2="6" gradientUnits="userSpaceOnUse" xlink:href="#linearGradient3777"/><linearGradient id="linearGradient4525" x1="4" x2="19" y1="1040.862" y2="1040.862" gradientUnits="userSpaceOnUse" xlink:href="#linearGradient3767"/><linearGradient id="linearGradient4533" x1="4" x2="19" y1="1040.862" y2="1040.862" gradientUnits="userSpaceOnUse" xlink:href="#linearGradient3767"/></defs><metadata id="metadata7"/><g id="layer1" transform="translate(0,-1033.3622)"><g id="g4765" transform="translate(-1.9999997,1.9999733)"><path style="fill:#b3b3b3;fill-opacity:1;stroke:none" id="path4003" d="M 18,11.5 C 18,14.537566 15.761424,17 13,17 10.238576,17 8,14.537566 8,11.5 8,8.4624339 10.238576,6 13,6 c 2.761424,0 5,2.4624339 5,5.5 z" transform="matrix(1.6999999,0,0,1.5454545,-10.599999,1023.0895)"/><g id="g4005" transform="matrix(1.4024284,0,0,1.4024284,-5.3291594,-418.17133)" style="fill:#b3b3b3"><rect id="rect4007" width="7" height="1" x="-730.662" y="743.632" transform="matrix(0.70710678,-0.70710678,0.70710678,0.70710678,0,0)" style="fill:#b3b3b3;fill-opacity:1;stroke:none"/><rect style="fill:#b3b3b3;fill-opacity:1;stroke:none" id="rect4009" width="7" height="1" x="-747.632" y="726.662" transform="matrix(-0.70710678,-0.70710678,-0.70710678,0.70710678,0,0)"/></g><path id="path4545" d="M 18,11.5 C 18,14.537566 15.761424,17 13,17 10.238576,17 8,14.537566 8,11.5 8,8.4624339 10.238576,6 13,6 c 2.761424,0 5,2.4624339 5,5.5 z" transform="matrix(1.5,0,0,1.3636364,-8,1025.1804)" style="fill:#f2f2f2;fill-opacity:1;stroke:none"/><rect id="rect3956-1" width="8.662" height="1.237" x="-732.2" y="743.514" transform="matrix(0.70710678,-0.70710678,0.70710678,0.70710678,0,0)" style="fill:#666;fill-opacity:1;stroke:none"/><rect style="fill:#666;fill-opacity:1;stroke:none" id="rect3958-6" width="8.662" height="1.237" x="-748.463" y="727.25" transform="matrix(-0.70710678,-0.70710678,-0.70710678,0.70710678,0,0)"/></g></g></svg>