<svg xmlns="http://www.w3.org/2000/svg" xmlns:svg="http://www.w3.org/2000/svg" xmlns:xlink="http://www.w3.org/1999/xlink" id="svg2" width="19" height="19" version="1.1"><defs id="defs4"><linearGradient id="linearGradient3777"><stop id="stop3779" offset="0" style="stop-color:#000;stop-opacity:.22745098"/><stop id="stop3781" offset="1" style="stop-color:#000;stop-opacity:0"/></linearGradient><linearGradient id="linearGradient3767"><stop style="stop-color:#fafafa;stop-opacity:1" id="stop3769" offset="0"/><stop style="stop-color:#d4d4d4;stop-opacity:1" id="stop3771" offset="1"/></linearGradient><linearGradient id="linearGradient3757"><stop style="stop-color:#bebebe;stop-opacity:1" id="stop3759" offset="0"/><stop style="stop-color:#e6e6e6;stop-opacity:1" id="stop3761" offset="1"/></linearGradient><linearGradient id="linearGradient3763" x1="13" x2="13" y1="4" y2="19" gradientUnits="userSpaceOnUse" xlink:href="#linearGradient3757"/><linearGradient id="linearGradient3797" x1="13.333" x2="13.333" y1="6" y2="17" gradientUnits="userSpaceOnUse" xlink:href="#linearGradient3767"/><linearGradient id="linearGradient3801" x1="14.471" x2="14.471" y1="17" y2="6" gradientUnits="userSpaceOnUse" xlink:href="#linearGradient3777"/><linearGradient id="linearGradient4525" x1="4" x2="19" y1="1040.862" y2="1040.862" gradientUnits="userSpaceOnUse" xlink:href="#linearGradient3767"/><linearGradient id="linearGradient4527" x1="4" x2="19" y1="1040.862" y2="1040.862" gradientUnits="userSpaceOnUse" xlink:href="#linearGradient3767"/><linearGradient id="linearGradient4529" x1="4" x2="19" y1="1040.862" y2="1040.862" gradientUnits="userSpaceOnUse" xlink:href="#linearGradient3767"/><linearGradient id="linearGradient4531" x1="4" x2="19" y1="1040.862" y2="1040.862" gradientUnits="userSpaceOnUse" xlink:href="#linearGradient3767"/><linearGradient id="linearGradient4533" x1="4" x2="19" y1="1040.862" y2="1040.862" gradientUnits="userSpaceOnUse" xlink:href="#linearGradient3767"/><linearGradient id="linearGradient4553" x1="14" x2="14" y1="6" y2="17" gradientUnits="userSpaceOnUse" xlink:href="#linearGradient3767"/><linearGradient id="linearGradient4571" x1="14" x2="14" y1="6" y2="17" gradientUnits="userSpaceOnUse" xlink:href="#linearGradient3767"/></defs><metadata id="metadata7"/><g id="layer1" transform="translate(0,-1033.3622)"><g id="g4526"><path style="fill:#b3b3b3;fill-opacity:1;stroke:none" id="path4003" d="m 18,11.5 a 5,5.5 0 1 1 -10,0 5,5.5 0 1 1 10,0 z" transform="matrix(1.6999999,0,0,1.5454545,-12.599999,1025.0895)"/><path id="path4545" d="m 18,11.5 a 5,5.5 0 1 1 -10,0 5,5.5 0 1 1 10,0 z" transform="matrix(1.5,0,0,1.3636364,-9.9999997,1027.1804)" style="fill:#f2f2f2;fill-opacity:1;stroke:none"/><g style="fill:#666" id="g3044" transform="matrix(1,0,0,-1,-2.8399928,2082.4342)"><rect style="fill:#666;fill-opacity:1;stroke:none" id="rect3040" width="5" height="1.237" x="-727.923" y="744.136" transform="matrix(0.70710677,-0.70710679,0.70710677,0.70710679,0,0)"/><rect id="rect3042" width="5" height="1.237" x="-745.374" y="726.684" transform="matrix(-0.70710677,-0.70710679,-0.70710677,0.70710679,0,0)" style="fill:#666;fill-opacity:1;stroke:none"/></g></g></g></svg>