<svg xmlns="http://www.w3.org/2000/svg" xmlns:svg="http://www.w3.org/2000/svg" xmlns:xlink="http://www.w3.org/1999/xlink" id="svg12430" width="16" height="16" version="1.1"><metadata id="metadata12435"/><g id="layer1" transform="translate(0,-1036.3622)"><g style="display:inline" id="g14642-3-0" transform="translate(-141.99984,638.37113)"><path style="color:#bebebe;fill:#000;fill-opacity:1;stroke:none;stroke-width:2;marker:none;visibility:visible;display:inline;overflow:visible;opacity:.8" id="path13004" d="M 145.1875,400 C 144.5248,400 144,400.54899 144,401.21875 l 0,9.5625 c 0,0.66976 0.5248,1.21875 1.1875,1.21875 l 9.625,0 c 0.6627,0 1.1875,-0.54899 1.1875,-1.21875 l 0,-9.5625 C 156,400.54899 155.4752,400 154.8125,400 L 145.1875,400 z m 3.8125,3 2,0 0,2 2,0 0,2 -2,0 0,2 -2,0 0,-2 -2,0 0,-2 2,0 L 149,403 Z" transform="translate(0,1)" xlink:href="#rect11749-5-0-1-8"/><use id="use11960" width="16" height="16" x="0" y="0" transform="translate(1,-1)" xlink:href="#path13004"/><use id="use11962" width="16" height="16" x="0" y="0" transform="translate(-2,0)" xlink:href="#use11960"/><path style="fill:#000;fill-opacity:1;fill-rule:evenodd;stroke:#000;stroke-width:0;stroke-linecap:butt;stroke-linejoin:miter;stroke-miterlimit:4;stroke-opacity:1" id="rect3757" d="M 7 5 L 7 7 L 5 7 L 5 9 L 7 9 L 7 11 L 9 11 L 9 9 L 11 9 L 11 7 L 9 7 L 9 5 L 7 5 z" transform="translate(141.99984,397.99107)"/><path style="color:#bebebe;fill:#fff;fill-opacity:1;stroke:none;stroke-width:2;marker:none;visibility:visible;display:inline;overflow:visible" id="rect11749-5-0-1-8" d="M 145.1875,400 C 144.5248,400 144,400.54899 144,401.21875 l 0,9.5625 c 0,0.66976 0.5248,1.21875 1.1875,1.21875 l 9.625,0 c 0.6627,0 1.1875,-0.54899 1.1875,-1.21875 l 0,-9.5625 C 156,400.54899 155.4752,400 154.8125,400 L 145.1875,400 z m 3.8125,3 2,0 0,2 2,0 0,2 -2,0 0,2 -2,0 0,-2 -2,0 0,-2 2,0 L 149,403 Z"/><rect style="fill:none;stroke:none" id="rect3620-5-4" width="15.982" height="16" x="142" y="398" rx="0" ry="0"/></g></g></svg>