<svg xmlns="http://www.w3.org/2000/svg" xmlns:svg="http://www.w3.org/2000/svg" id="svg3273" width="65" height="22" version="1.1"><metadata id="metadata3278"/><g id="layer1" transform="translate(-343,-521.36218)"><g id="g17454" transform="translate(-453,448.36218)" style="display:inline"><rect id="rect17456" width="63" height="19" x="-859.5" y="74.5" rx="4" ry="4" transform="scale(-1,1)" style="color:#000;fill:none;stroke:#2e3436;stroke-width:.99999994;stroke-linecap:round;stroke-linejoin:miter;stroke-miterlimit:4;stroke-opacity:1;stroke-dasharray:none;stroke-dashoffset:0;marker:none;visibility:visible;display:inline;overflow:visible;enable-background:accumulate"/><rect id="rect17458" width="31" height="20" x="-828" y="74" rx="4" ry="4" transform="scale(-1,1)" style="fill:#000;fill-opacity:1;stroke:#5f5f5f;stroke-width:2;stroke-linecap:round;stroke-linejoin:miter;stroke-miterlimit:4;stroke-opacity:1;stroke-dasharray:none;stroke-dashoffset:0;display:inline"/><g id="g17460" transform="matrix(-1,0,0,1,1619.1239,-33.986291)" style="display:inline"><path style="fill:none;stroke:#5f5f5f;stroke-width:1px;stroke-linecap:round;stroke-linejoin:miter;stroke-opacity:1" id="path17462" d="m 803.6322,115.48629 0,4.29495"/><path style="fill:none;stroke:#5f5f5f;stroke-width:1px;stroke-linecap:round;stroke-linejoin:miter;stroke-opacity:1;display:inline" id="path17464" d="m 806.62805,115.48629 0,4.29495"/><path style="fill:none;stroke:#5f5f5f;stroke-width:1px;stroke-linecap:round;stroke-linejoin:miter;stroke-opacity:1;display:inline" id="path17466" d="m 809.6239,115.48629 0,4.29495"/></g><path style="color:#000;fill:none;stroke:#fff;stroke-width:1.96875012;stroke-linecap:round;stroke-linejoin:miter;stroke-miterlimit:4;stroke-opacity:1;stroke-dasharray:none;stroke-dashoffset:0;marker:none;visibility:visible;display:inline;overflow:visible;enable-background:accumulate" id="path18722" d="m 51.625,11.5625 c 0,2.174621 -1.762879,3.9375 -3.9375,3.9375 -2.174621,0 -3.9375,-1.762879 -3.9375,-3.9375 0,-2.1746212 1.762879,-3.9375 3.9375,-3.9375 2.174621,0 3.9375,1.7628788 3.9375,3.9375 z" transform="matrix(1.0158729,0,0,1.0158729,795.55556,72.25399)"/></g></g></svg>